# xmcd
#
# Track frame offsets:
#	150
#	21207
#	33725
#	47257
#	62047
#	77537
#	108145
#	123795
#	139537
#	164617
#	182192
#	197450
#	213267
#	230747
#
# Disc length: 3273
#
# Revision: 3
# Processed by: cddbd v1.5.1PL0 Copyright (c) Steve Scherf et al.
# Submitted via: CDValet v3.31 - Copyright (c) 1997 Greg Leichner
# Normalized: r1:DSETVAR1;r2:TSWAP
#
DISCID=b40cc70e
DTITLE=Various Artist - Deep Soul - Volume One
DYEAR=1900
DGENRE=
TTITLE0=Rufus(Featuring Chaka Khan) - You Got The Love
TTITLE1=Jean Knight - Mr. Big Stuff
TTITLE2=King Floyd - Groove Me
TTITLE3=Stylistics - You're A Big Girl Now
TTITLE4=Ronnie Dyson - Why Can't I Touch You
TTITLE5=Temprees - Dedicated To The One I Love
TTITLE6=Al Wilson - Show And Tell
TTITLE7=Staple Singers - Let's Do It Again
TTITLE8=O'Jays - You Got Your Hooks In Me
TTITLE9=Disco Tes and The Sex-O-Lettes - Get Dancin'
TTITLE10=Minnie Ripperton - Lovin' You
TTITLE11=Natural Four - Can This Be Real
TTITLE12=Curtis Mayfield - Superfly
TTITLE13=Brenda And The Tabulations - Right On Tht Tip Of My Tongue
EXTD=
EXTT0=
EXTT1=
EXTT2=
EXTT3=
EXTT4=
EXTT5=
EXTT6=
EXTT7=
EXTT8=
EXTT9=
EXTT10=
EXTT11=
EXTT12=
EXTT13=
PLAYORDER=
